<?xml version="1.0" encoding="UTF-8"?>
<svg id="Layer_2" data-name="Layer 2" xmlns="http://www.w3.org/2000/svg" viewBox="0 0 94.65 94.56">
  <defs>
    <style>
      .cls-1 {
        fill: #fefefe;
      }

      .cls-2 {
        fill: #fafafa;
      }

      .cls-3 {
        fill: #fbfbfb;
      }

      .cls-4 {
        fill: #fdfdfd;
      }
    </style>
  </defs>
  <g id="Layer_1-2" data-name="Layer 1">
    <g id="DgM7vb">
      <g>
        <path class="cls-1" d="M42.28,39.84c-2.54,2.84-5.46,4.58-9.46,3.41-3.29-.96-5.64-3.62-6.02-6.92-.45-3.8,1.05-6.82,4.28-8.56,.73-.39,1.51-.69,2.27-1.04,2.5-.05,4.96,.06,7.03,1.75,3.5,2.86,4.14,6.63,1.91,11.35Z"/>
        <path class="cls-1" d="M58.82,67.97c-6.52-1.39-9.06-5.84-7-12.27,2.02-3.21,4.8-5.08,8.71-4.58,4.4,.56,7.39,4.02,7.37,8.34-.02,4.49-3.04,7.83-7.59,8.4-.49,.06-.99,.08-1.49,.12Z"/>
        <path class="cls-1" d="M67.87,35.18c-.02,4.81-3.51,8.29-8.34,8.32-4.69,.03-8.48-3.66-8.5-8.28-.02-4.72,3.78-8.46,8.59-8.46,4.74,0,8.27,3.6,8.25,8.42Z"/>
        <path class="cls-1" d="M80.21,19.25c-2.56-.02-4.79-2.25-4.78-4.77,0-2.64,2.07-4.7,4.75-4.74,2.59-.04,4.74,2.1,4.74,4.72,0,2.61-2.17,4.81-4.71,4.79Z"/>
        <path class="cls-1" d="M58.25,19.21c-2.51-.04-4.68-2.15-4.71-4.58-.03-2.77,2.11-4.89,4.92-4.86,2.59,.03,4.64,2.25,4.55,4.93-.09,2.47-2.27,4.54-4.76,4.51Z"/>
        <path class="cls-1" d="M80.11,62.95c-2.56-.03-4.75-2.31-4.68-4.87,.07-2.45,2.26-4.57,4.72-4.59,2.64-.02,4.73,2.08,4.75,4.76,.02,2.61-2.15,4.73-4.79,4.7Z"/>
        <path class="cls-1" d="M80.24,75.4c2.62,.05,4.74,2.24,4.7,4.84-.04,2.58-2.3,4.68-4.93,4.58-2.55-.1-4.59-2.18-4.59-4.68,0-2.56,2.26-4.79,4.81-4.74Z"/>
        <path class="cls-4" d="M34.34,18.96c-1.76-1.02-2.47-2.72-2.98-4.56,.55-1.88,1.35-3.61,3.36-4.3,1.86-.64,3.65-.34,5.05,1.09,1.38,1.42,1.72,3.14,.97,5.04-.75,1.92-2.21,2.83-4.19,2.96-.73,.05-1.48-.14-2.21-.23Z"/>
        <path class="cls-1" d="M80.25,41.06c-2.69-.02-4.86-2.14-4.8-4.7,.06-2.67,2.19-4.76,4.81-4.73,2.59,.03,4.66,2.23,4.61,4.87-.05,2.59-2.06,4.57-4.62,4.55Z"/>
        <path class="cls-2" d="M58.43,4.6c-1.47-.08-2.38-.72-2.44-2.11-.06-1.47,.79-2.4,2.24-2.45,1.31-.04,2.25,.72,2.32,2.1,.08,1.5-.84,2.25-2.13,2.46Z"/>
        <path class="cls-2" d="M36.42,0c1.32,.09,2.15,.84,2.2,2.17,.06,1.45-.78,2.35-2.25,2.41-1.41,.06-2.17-.88-2.24-2.15-.09-1.45,.8-2.26,2.29-2.43Z"/>
        <path class="cls-2" d="M92.3,34.06c1.32,.11,2.25,.75,2.32,2.11,.07,1.42-.67,2.44-2.16,2.47-1.47,.03-2.3-.91-2.33-2.34-.03-1.38,.85-2.06,2.17-2.24Z"/>
        <path class="cls-2" d="M92.32,60.55c-1.28-.22-2.16-.91-2.19-2.25-.03-1.45,.8-2.35,2.28-2.34,1.35,.01,2.18,.91,2.23,2.18,.06,1.45-.93,2.18-2.32,2.41Z"/>
        <path class="cls-1" d="M35.09,67.88c-4.74,0-8.3-3.63-8.31-8.44-.01-4.69,3.74-8.51,8.31-8.48,4.43,.04,8.53,4.04,8.6,8.4,.07,4.72-3.78,8.53-8.6,8.53Z"/>
        <path class="cls-4" d="M36.33,84.83c-2.69-.04-4.71-2.1-4.68-4.77,.03-2.61,2.17-4.7,4.8-4.68,2.59,.02,4.72,2.2,4.69,4.8-.02,2.62-2.16,4.69-4.81,4.65Z"/>
        <path class="cls-1" d="M14.19,62.98c-2.58-.14-4.59-2.42-4.44-5.03,.15-2.58,2.5-4.68,5.01-4.47,2.62,.22,4.65,2.52,4.46,5.05-.2,2.64-2.4,4.59-5.03,4.44Z"/>
        <path class="cls-4" d="M19.26,14.53c.03,2.49-2.27,4.73-4.82,4.7-2.64-.03-4.67-2.11-4.68-4.79,0-2.62,2.1-4.69,4.75-4.68,2.56,.01,4.72,2.19,4.75,4.76Z"/>
        <path class="cls-1" d="M19.24,36.36c-.03,2.59-2.19,4.75-4.77,4.78-2.63,.03-4.82-2.3-4.73-5.03,.08-2.52,2.16-4.49,4.72-4.47,2.65,.02,4.81,2.15,4.78,4.72Z"/>
        <path class="cls-4" d="M19.25,79.97c.07,2.54-2.08,4.78-4.66,4.86-2.71,.09-4.8-1.89-4.84-4.57-.05-2.7,1.93-4.82,4.57-4.88,2.59-.06,4.86,2.05,4.93,4.59Z"/>
        <path class="cls-1" d="M62.82,80.21c-.03,2.73-1.83,4.61-4.44,4.62-2.72,.02-4.94-2.24-4.85-4.92,.09-2.46,2.24-4.51,4.74-4.53,2.58-.02,4.57,2.09,4.54,4.82Z"/>
        <path class="cls-3" d="M2.34,55.94c1.35,.25,2.29,.89,2.25,2.29-.04,1.49-.97,2.27-2.43,2.26C.76,60.48,0,59.63,0,58.27c0-1.52,1.03-2.15,2.34-2.33Z"/>
        <path class="cls-3" d="M38.67,92.26c-.18,1.35-.78,2.29-2.2,2.3-1.5,0-2.34-.94-2.36-2.35-.02-1.32,.79-2.23,2.17-2.22,1.44,0,2.29,.83,2.39,2.27Z"/>
        <path class="cls-2" d="M4.58,36.31c-.07,1.43-.81,2.27-2.15,2.32-1.45,.05-2.39-.77-2.39-2.26,0-1.3,.74-2.25,2.11-2.3,1.49-.05,2.22,.89,2.43,2.24Z"/>
        <path class="cls-2" d="M60.59,92.09c-.06,1.58-.94,2.41-2.35,2.45-1.32,.04-2.22-.76-2.25-2.14-.02-1.31,.67-2.28,2.04-2.37,1.42-.09,2.34,.65,2.55,2.06Z"/>
      </g>
    </g>
  </g>
</svg>